<?xml version="1.0" encoding="UTF-8" standalone="no"?>
<!DOCTYPE svg PUBLIC "-//W3C//DTD SVG 1.1//EN" "http://www.w3.org/Graphics/SVG/1.1/DTD/svg11.dtd">
<!-- 由 Microsoft Visio, SVG Export 生成 前端.svg Page-1 -->
<svg xmlns="http://www.w3.org/2000/svg" xmlns:xlink="http://www.w3.org/1999/xlink" xmlns:ev="http://www.w3.org/2001/xml-events"
		xmlns:v="http://schemas.microsoft.com/visio/2003/SVGExtensions/" width="24.5in" height="11in" viewBox="0 0 1764 792"
		xml:space="preserve" color-interpolation-filters="sRGB" class="st13">
	<v:documentProperties v:langID="1033" v:metric="true" v:viewMarkup="false">
		<v:userDefs>
			<v:ud v:nameU="msvNoAutoConnect" v:val="VT0(1):26"/>
		</v:userDefs>
	</v:documentProperties>

	<style type="text/css">
	<![CDATA[
		.st1 {stroke:#000000;stroke-dasharray:9.92126,7.08661;stroke-linecap:round;stroke-linejoin:round;stroke-width:1.41732}
		.st2 {fill:#ffffff;stroke:#000000;stroke-linecap:round;stroke-linejoin:round;stroke-width:1.06299}
		.st3 {fill:#000000;font-family:Microsoft Sans Serif;font-size:1.00001em}
		.st4 {font-size:1em}
		.st5 {fill:#000000;font-family:微软雅黑;font-size:1.00001em}
		.st6 {fill:#000000;font-family:Microsoft Sans Serif;font-size:0.833336em}
		.st7 {fill:none;stroke:none;stroke-linecap:round;stroke-linejoin:round;stroke-width:1.06299}
		.st8 {fill:#000000;font-family:微软雅黑;font-size:1.16666em}
		.st9 {marker-end:url(#mrkr4-123);stroke:#000000;stroke-linecap:round;stroke-linejoin:round;stroke-width:1.06299}
		.st10 {fill:#000000;fill-opacity:1;stroke:#000000;stroke-opacity:1;stroke-width:0.29667721518987}
		.st11 {marker-end:url(#mrkr4-123);stroke:#000000;stroke-dasharray:7.44094,5.31496,0,5.31496;stroke-linecap:round;stroke-linejoin:round;stroke-width:1.06299}
		.st12 {stroke:#000000;stroke-linecap:round;stroke-linejoin:round;stroke-width:1.06299}
		.st13 {fill:none;fill-rule:evenodd;font-size:12px;overflow:visible;stroke-linecap:square;stroke-miterlimit:3}
	]]>
	</style>

	<defs id="Markers">
		<g id="lend4">
			<path d="M 2 1 L 0 0 L 2 -1 L 2 1 " style="stroke:none"/>
		</g>
		<marker id="mrkr4-123" class="st10" v:arrowType="4" v:arrowSize="2" v:setback="6.74133" refX="-6.7413333333333"
				orient="auto" markerUnits="strokeWidth" overflow="visible">
			<use xlink:href="#lend4" transform="scale(-3.3706666666667,-3.3706666666667) "/>
		</marker>
	</defs>
	<g v:mID="0" v:index="1" v:groupContext="foregroundPage">
		<title>Page-1</title>
		<v:pageProperties v:drawingScale="1" v:pageScale="1" v:drawingUnits="24" v:shadowOffsetX="8.50394"
				v:shadowOffsetY="-8.50394"/>
		<v:layer v:name="Background" v:index="0"/>
		<v:layer v:name="Connector" v:index="1"/>
		<g id="shape1-1" v:mID="1" v:groupContext="shape" v:layerMember="0" transform="translate(292.535,-175.433)">
			<title>矩形</title>
			<path d="M0 561.07 L434.96 561.07 L434.96 792 L0 792 L0 561.07" class="st1"/>
		</g>
		<g id="shape2-4" v:mID="2" v:groupContext="shape" v:layerMember="0" transform="translate(850.859,-336.597)">
			<title>Shape.2</title>
			<path d="M0 719.78 L97.5 719.78 L97.5 792 L0 792 L0 719.78" class="st1"/>
		</g>
		<g id="shape3-7" v:mID="3" v:groupContext="shape" v:layerMember="0" transform="translate(850.859,-250.006)">
			<title>Shape.3</title>
			<path d="M0 721.69 L97.5 721.69 L97.5 792 L0 792 L0 721.69" class="st1"/>
		</g>
		<g id="shape4-10" v:mID="4" v:groupContext="shape" v:layerMember="0" transform="translate(963.106,-336.597)">
			<title>Shape.4</title>
			<path d="M0 574.98 L324.69 574.98 L324.69 792 L0 792 L0 574.98" class="st1"/>
		</g>
		<g id="shape5-13" v:mID="5" v:groupContext="shape" v:layerMember="0" transform="translate(737.411,-339.044)">
			<title>Shape.5</title>
			<path d="M0 724.68 L103.53 724.68 L103.53 792 L0 792 L0 724.68" class="st1"/>
		</g>
		<g id="shape6-16" v:mID="6" v:groupContext="shape" v:layerMember="0" transform="translate(491.891,-422.362)">
			<title>Shape.6</title>
			<path d="M0 567.75 L453.5 567.75 L453.5 792 L0 792 L0 567.75" class="st1"/>
		</g>
		<g id="shape7-19" v:mID="7" v:groupContext="shape" v:layerMember="0" transform="translate(755.159,-596.26)">
			<title>圆角矩形</title>
			<desc>pages</desc>
			<v:textBlock v:margins="rect(0,0,0,0)"/>
			<v:textRect cx="34.0157" cy="772.866" width="53.86" height="38.2677"/>
			<path d="M0 756.57 C0 754.68 0.94 753.73 2.83 753.73 L65.2 753.73 C67.09 753.73 68.03 754.68 68.03 756.57 L68.03 789.17
						 C68.03 791.06 67.09 792 65.2 792 L2.83 792 C0.94 792 0 791.06 0 789.17 L0 756.57 Z" class="st2"/>
			<text x="17.67" y="776.47" class="st3" v:langID="2052"><v:paragraph v:horizAlign="1"/><v:tabList/>pages</text>		</g>
		<g id="shape8-22" v:mID="8" v:groupContext="shape" v:layerMember="0" transform="translate(644.726,-515.354)">
			<title>Shape.8</title>
			<desc>home</desc>
			<v:textBlock v:margins="rect(0,0,0,0)"/>
			<v:textRect cx="34.0157" cy="772.866" width="53.86" height="38.2677"/>
			<path d="M0 756.57 C0 754.68 0.94 753.73 2.83 753.73 L65.2 753.73 C67.09 753.73 68.03 754.68 68.03 756.57 L68.03 789.17
						 C68.03 791.06 67.09 792 65.2 792 L2.83 792 C0.94 792 0 791.06 0 789.17 L0 756.57 Z" class="st2"/>
			<text x="19.01" y="776.47" class="st3" v:langID="2052"><v:paragraph v:horizAlign="1"/><v:tabList/>home</text>		</g>
		<g id="shape9-25" v:mID="9" v:groupContext="shape" v:layerMember="0" transform="translate(755.159,-515.354)">
			<title>Shape.9</title>
			<desc>message</desc>
			<v:textBlock v:margins="rect(0,0,0,0)"/>
			<v:textRect cx="34.0157" cy="772.866" width="53.86" height="38.2677"/>
			<path d="M0 756.57 C0 754.68 0.94 753.73 2.83 753.73 L65.2 753.73 C67.09 753.73 68.03 754.68 68.03 756.57 L68.03 789.17
						 C68.03 791.06 67.09 792 65.2 792 L2.83 792 C0.94 792 0 791.06 0 789.17 L0 756.57 Z" class="st2"/>
			<text x="9.67" y="776.47" class="st3" v:langID="2052"><v:paragraph v:horizAlign="1"/><v:tabList/>message</text>		</g>
		<g id="shape10-28" v:mID="10" v:groupContext="shape" v:layerMember="0" transform="translate(865.592,-515.354)">
			<title>Shape.10</title>
			<desc>my</desc>
			<v:textBlock v:margins="rect(0,0,0,0)"/>
			<v:textRect cx="34.0157" cy="772.866" width="53.86" height="38.2677"/>
			<path d="M0 756.57 C0 754.68 0.94 753.73 2.83 753.73 L65.2 753.73 C67.09 753.73 68.03 754.68 68.03 756.57 L68.03 789.17
						 C68.03 791.06 67.09 792 65.2 792 L2.83 792 C0.94 792 0 791.06 0 789.17 L0 756.57 Z" class="st2"/>
			<text x="26.02" y="776.47" class="st3" v:langID="2052"><v:paragraph v:horizAlign="1"/><v:tabList/>my</text>		</g>
		<g id="shape11-31" v:mID="11" v:groupContext="shape" v:layerMember="0" transform="translate(644.726,-434.702)">
			<title>Shape.11</title>
			<desc>doctor-home</desc>
			<v:textBlock v:margins="rect(0,0,0,0)"/>
			<v:textRect cx="34.0157" cy="772.866" width="53.86" height="38.2677"/>
			<path d="M0 756.57 C0 754.68 0.94 753.73 2.83 753.73 L65.2 753.73 C67.09 753.73 68.03 754.68 68.03 756.57 L68.03 789.17
						 C68.03 791.06 67.09 792 65.2 792 L2.83 792 C0.94 792 0 791.06 0 789.17 L0 756.57 Z" class="st2"/>
			<text x="15.34" y="769.27" class="st3" v:langID="2052"><v:paragraph v:horizAlign="1"/><v:tabList/>doctor-<tspan
						x="19.01" dy="1.2em" class="st4">home</tspan></text>		</g>
		<g id="shape12-35" v:mID="12" v:groupContext="shape" v:layerMember="0" transform="translate(1302.54,-601.22)">
			<title>Shape.12</title>
			<desc>操作层级</desc>
			<v:textBlock v:margins="rect(0,0,0,0)"/>
			<v:textRect cx="34.0157" cy="772.866" width="53.86" height="38.2677"/>
			<path d="M0 756.57 C0 754.68 0.94 753.73 2.83 753.73 L65.2 753.73 C67.09 753.73 68.03 754.68 68.03 756.57 L68.03 789.17
						 C68.03 791.06 67.09 792 65.2 792 L2.83 792 C0.94 792 0 791.06 0 789.17 L0 756.57 Z" class="st2"/>
			<text x="10.02" y="776.52" class="st5" v:langID="2052"><v:paragraph v:horizAlign="1"/><v:tabList/>操作层级</text>		</g>
		<g id="shape13-38" v:mID="13" v:groupContext="shape" v:layerMember="0" transform="translate(534.293,-434.702)">
			<title>Shape.13</title>
			<desc>patient-home</desc>
			<v:textBlock v:margins="rect(0,0,0,0)"/>
			<v:textRect cx="34.0157" cy="772.866" width="53.86" height="38.2677"/>
			<path d="M0 756.57 C0 754.68 0.94 753.73 2.83 753.73 L65.2 753.73 C67.09 753.73 68.03 754.68 68.03 756.57 L68.03 789.17
						 C68.03 791.06 67.09 792 65.2 792 L2.83 792 C0.94 792 0 791.06 0 789.17 L0 756.57 Z" class="st2"/>
			<text x="13.97" y="769.27" class="st3" v:langID="2052"><v:paragraph v:horizAlign="1"/><v:tabList/>patient-<tspan
						x="19.01" dy="1.2em" class="st4">home</tspan></text>		</g>
		<g id="shape14-42" v:mID="14" v:groupContext="shape" v:layerMember="0" transform="translate(755.159,-349.663)">
			<title>Shape.14</title>
			<desc>chat</desc>
			<v:textBlock v:margins="rect(0,0,0,0)"/>
			<v:textRect cx="34.0157" cy="772.866" width="53.86" height="38.2677"/>
			<path d="M0 756.57 C0 754.68 0.94 753.73 2.83 753.73 L65.2 753.73 C67.09 753.73 68.03 754.68 68.03 756.57 L68.03 789.17
						 C68.03 791.06 67.09 792 65.2 792 L2.83 792 C0.94 792 0 791.06 0 789.17 L0 756.57 Z" class="st2"/>
			<text x="22.67" y="776.47" class="st3" v:langID="2052"><v:paragraph v:horizAlign="1"/><v:tabList/>chat</text>		</g>
		<g id="shape15-45" v:mID="15" v:groupContext="shape" v:layerMember="0" transform="translate(865.592,-349.663)">
			<title>Shape.15</title>
			<desc>login</desc>
			<v:textBlock v:margins="rect(0,0,0,0)"/>
			<v:textRect cx="34.0157" cy="772.866" width="53.86" height="38.2677"/>
			<path d="M0 756.57 C0 754.68 0.94 753.73 2.83 753.73 L65.2 753.73 C67.09 753.73 68.03 754.68 68.03 756.57 L68.03 789.17
						 C68.03 791.06 67.09 792 65.2 792 L2.83 792 C0.94 792 0 791.06 0 789.17 L0 756.57 Z" class="st2"/>
			<text x="21.27" y="776.47" class="st3" v:langID="2052"><v:paragraph v:horizAlign="1"/><v:tabList/>login</text>		</g>
		<g id="shape16-48" v:mID="16" v:groupContext="shape" v:layerMember="0" transform="translate(865.592,-268.811)">
			<title>Shape.16</title>
			<desc>Login Code</desc>
			<v:textBlock v:margins="rect(0,0,0,0)"/>
			<v:textRect cx="34.0157" cy="772.866" width="53.86" height="38.2677"/>
			<path d="M0 756.57 C0 754.68 0.94 753.73 2.83 753.73 L65.2 753.73 C67.09 753.73 68.03 754.68 68.03 756.57 L68.03 789.17
						 C68.03 791.06 67.09 792 65.2 792 L2.83 792 C0.94 792 0 791.06 0 789.17 L0 756.57 Z" class="st2"/>
			<text x="19.3" y="769.27" class="st3" v:langID="2052"><v:paragraph v:horizAlign="1"/><v:tabList/>Login<v:newlineChar/><tspan
						x="19.67" dy="1.2em" class="st4">Code</tspan></text>		</g>
		<g id="shape17-52" v:mID="17" v:groupContext="shape" v:layerMember="0" transform="translate(1086.58,-430.192)">
			<title>Shape.17</title>
			<desc>extra</desc>
			<v:textBlock v:margins="rect(0,0,0,0)"/>
			<v:textRect cx="34.0157" cy="773.057" width="53.86" height="28.7008"/>
			<path d="M0 772.87 L34.02 753.73 L68.03 772.87 L34.02 792 L0 772.87 Z" class="st2"/>
			<text x="20.68" y="776.66" class="st3" v:langID="2052"><v:paragraph v:horizAlign="1"/><v:tabList/>extra</text>		</g>
		<g id="shape18-55" v:mID="18" v:groupContext="shape" v:layerMember="0" transform="translate(976.025,-349.663)">
			<title>Shape.18</title>
			<desc>profile</desc>
			<v:textBlock v:margins="rect(0,0,0,0)"/>
			<v:textRect cx="34.0157" cy="772.866" width="53.86" height="38.2677"/>
			<path d="M0 756.57 C0 754.68 0.94 753.73 2.83 753.73 L65.2 753.73 C67.09 753.73 68.03 754.68 68.03 756.57 L68.03 789.17
						 C68.03 791.06 67.09 792 65.2 792 L2.83 792 C0.94 792 0 791.06 0 789.17 L0 756.57 Z" class="st2"/>
			<text x="17.6" y="776.47" class="st3" v:langID="2052"><v:paragraph v:horizAlign="1"/><v:tabList/>profile</text>		</g>
		<g id="shape19-58" v:mID="19" v:groupContext="shape" v:layerMember="0" transform="translate(1086.58,-349.663)">
			<title>Shape.19</title>
			<desc>profile-doctor</desc>
			<v:textBlock v:margins="rect(0,0,0,0)"/>
			<v:textRect cx="34.0157" cy="772.866" width="53.86" height="38.2677"/>
			<path d="M0 756.57 C0 754.68 0.94 753.73 2.83 753.73 L65.2 753.73 C67.09 753.73 68.03 754.68 68.03 756.57 L68.03 789.17
						 C68.03 791.06 67.09 792 65.2 792 L2.83 792 C0.94 792 0 791.06 0 789.17 L0 756.57 Z" class="st2"/>
			<text x="15.61" y="769.27" class="st3" v:langID="2052"><v:paragraph v:horizAlign="1"/><v:tabList/>profile-<tspan
						x="17.34" dy="1.2em" class="st4">doctor</tspan></text>		</g>
		<g id="shape20-62" v:mID="20" v:groupContext="shape" v:layerMember="0" transform="translate(1197.14,-349.663)">
			<title>Shape.20</title>
			<desc>info-edit</desc>
			<v:textBlock v:margins="rect(0,0,0,0)"/>
			<v:textRect cx="34.0157" cy="772.866" width="53.86" height="38.2677"/>
			<path d="M0 756.57 C0 754.68 0.94 753.73 2.83 753.73 L65.2 753.73 C67.09 753.73 68.03 754.68 68.03 756.57 L68.03 789.17
						 C68.03 791.06 67.09 792 65.2 792 L2.83 792 C0.94 792 0 791.06 0 789.17 L0 756.57 Z" class="st2"/>
			<text x="12.6" y="776.47" class="st3" v:langID="2052"><v:paragraph v:horizAlign="1"/><v:tabList/>info-edit</text>		</g>
		<g id="shape21-65" v:mID="21" v:groupContext="shape" v:layerMember="0" transform="translate(534.293,-349.663)">
			<title>Shape.21</title>
			<desc>home Fuction</desc>
			<v:textBlock v:margins="rect(0,0,0,0)"/>
			<v:textRect cx="34.0157" cy="773.057" width="53.86" height="28.7008"/>
			<path d="M0 772.87 L34.02 753.73 L68.03 772.87 L34.02 792 L0 772.87 Z" class="st2"/>
			<text x="21.51" y="770.06" class="st6" v:langID="2052"><v:paragraph v:horizAlign="1"/><v:tabList/>home<v:newlineChar/><tspan
						x="17.59" dy="1.2em" class="st4">Fuction</tspan></text>		</g>
		<g id="shape22-69" v:mID="22" v:groupContext="shape" v:layerMember="0" transform="translate(534.293,-268.811)">
			<title>Shape.22</title>
			<desc>trend</desc>
			<v:textBlock v:margins="rect(0,0,0,0)"/>
			<v:textRect cx="34.0157" cy="772.866" width="53.86" height="38.2677"/>
			<path d="M0 756.57 C0 754.68 0.94 753.73 2.83 753.73 L65.2 753.73 C67.09 753.73 68.03 754.68 68.03 756.57 L68.03 789.17
						 C68.03 791.06 67.09 792 65.2 792 L2.83 792 C0.94 792 0 791.06 0 789.17 L0 756.57 Z" class="st2"/>
			<text x="20.34" y="776.47" class="st3" v:langID="2052"><v:paragraph v:horizAlign="1"/><v:tabList/>trend</text>		</g>
		<g id="shape23-72" v:mID="23" v:groupContext="shape" v:layerMember="0" transform="translate(423.86,-268.811)">
			<title>Shape.23</title>
			<desc>record</desc>
			<v:textBlock v:margins="rect(0,0,0,0)"/>
			<v:textRect cx="34.0157" cy="772.866" width="53.86" height="38.2677"/>
			<path d="M0 756.57 C0 754.68 0.94 753.73 2.83 753.73 L65.2 753.73 C67.09 753.73 68.03 754.68 68.03 756.57 L68.03 789.17
						 C68.03 791.06 67.09 792 65.2 792 L2.83 792 C0.94 792 0 791.06 0 789.17 L0 756.57 Z" class="st2"/>
			<text x="17.01" y="776.47" class="st3" v:langID="2052"><v:paragraph v:horizAlign="1"/><v:tabList/>record</text>		</g>
		<g id="shape24-75" v:mID="24" v:groupContext="shape" v:layerMember="0" transform="translate(644.726,-188.023)">
			<title>Shape.24</title>
			<desc>my-doctor</desc>
			<v:textBlock v:margins="rect(0,0,0,0)"/>
			<v:textRect cx="34.0157" cy="772.866" width="53.86" height="38.2677"/>
			<path d="M0 756.57 C0 754.68 0.94 753.73 2.83 753.73 L65.2 753.73 C67.09 753.73 68.03 754.68 68.03 756.57 L68.03 789.17
						 C68.03 791.06 67.09 792 65.2 792 L2.83 792 C0.94 792 0 791.06 0 789.17 L0 756.57 Z" class="st2"/>
			<text x="7.34" y="776.47" class="st3" v:langID="2052"><v:paragraph v:horizAlign="1"/><v:tabList/>my-doctor</text>		</g>
		<g id="shape25-78" v:mID="25" v:groupContext="shape" v:layerMember="0" transform="translate(644.726,-268.811)">
			<title>Shape.25</title>
			<desc>add-doctor</desc>
			<v:textBlock v:margins="rect(0,0,0,0)"/>
			<v:textRect cx="34.0157" cy="772.866" width="53.86" height="38.2677"/>
			<path d="M0 756.57 C0 754.68 0.94 753.73 2.83 753.73 L65.2 753.73 C67.09 753.73 68.03 754.68 68.03 756.57 L68.03 789.17
						 C68.03 791.06 67.09 792 65.2 792 L2.83 792 C0.94 792 0 791.06 0 789.17 L0 756.57 Z" class="st2"/>
			<text x="22.01" y="769.27" class="st3" v:langID="2052"><v:paragraph v:horizAlign="1"/><v:tabList/>add-<tspan x="17.34"
						dy="1.2em" class="st4">doctor</tspan></text>		</g>
		<g id="shape26-82" v:mID="26" v:groupContext="shape" v:layerMember="0" transform="translate(313.427,-268.811)">
			<title>Shape.26</title>
			<desc>prediction</desc>
			<v:textBlock v:margins="rect(0,0,0,0)"/>
			<v:textRect cx="34.0157" cy="772.866" width="53.86" height="38.2677"/>
			<path d="M0 756.57 C0 754.68 0.94 753.73 2.83 753.73 L65.2 753.73 C67.09 753.73 68.03 754.68 68.03 756.57 L68.03 789.17
						 C68.03 791.06 67.09 792 65.2 792 L2.83 792 C0.94 792 0 791.06 0 789.17 L0 756.57 Z" class="st2"/>
			<text x="12.28" y="775.87" class="st6" v:langID="2052"><v:paragraph v:horizAlign="1"/><v:tabList/>prediction</text>		</g>
		<g id="shape27-85" v:mID="27" v:groupContext="shape" v:layerMember="0" transform="translate(1302.54,-515.354)">
			<title>Shape.27</title>
			<desc>第一层</desc>
			<v:textBlock v:margins="rect(0,0,0,0)"/>
			<v:textRect cx="34.0157" cy="772.866" width="53.86" height="38.2677"/>
			<path d="M0 756.57 C0 754.68 0.94 753.73 2.83 753.73 L65.2 753.73 C67.09 753.73 68.03 754.68 68.03 756.57 L68.03 789.17
						 C68.03 791.06 67.09 792 65.2 792 L2.83 792 C0.94 792 0 791.06 0 789.17 L0 756.57 Z" class="st2"/>
			<text x="16.02" y="776.52" class="st5" v:langID="2052"><v:paragraph v:horizAlign="1"/><v:tabList/>第一层</text>		</g>
		<g id="shape28-88" v:mID="28" v:groupContext="shape" v:layerMember="0" transform="translate(1302.54,-311.395)">
			<title>Shape.28</title>
			<desc>第二层</desc>
			<v:textBlock v:margins="rect(0,0,0,0)"/>
			<v:textRect cx="34.0157" cy="772.866" width="53.86" height="38.2677"/>
			<path d="M0 756.57 C0 754.68 0.94 753.73 2.83 753.73 L65.2 753.73 C67.09 753.73 68.03 754.68 68.03 756.57 L68.03 789.17
						 C68.03 791.06 67.09 792 65.2 792 L2.83 792 C0.94 792 0 791.06 0 789.17 L0 756.57 Z" class="st2"/>
			<text x="16.02" y="776.52" class="st5" v:langID="2052"><v:paragraph v:horizAlign="1"/><v:tabList/>第二层</text>		</g>
		<g id="shape29-91" v:mID="29" v:groupContext="shape" v:layerMember="0" transform="translate(1302.54,-188.023)">
			<title>Shape.29</title>
			<desc>第三层</desc>
			<v:textBlock v:margins="rect(0,0,0,0)"/>
			<v:textRect cx="34.0157" cy="772.866" width="53.86" height="38.2677"/>
			<path d="M0 756.57 C0 754.68 0.94 753.73 2.83 753.73 L65.2 753.73 C67.09 753.73 68.03 754.68 68.03 756.57 L68.03 789.17
						 C68.03 791.06 67.09 792 65.2 792 L2.83 792 C0.94 792 0 791.06 0 789.17 L0 756.57 Z" class="st2"/>
			<text x="16.02" y="776.52" class="st5" v:langID="2052"><v:paragraph v:horizAlign="1"/><v:tabList/>第三层</text>		</g>
		<g id="shape30-94" v:mID="30" v:groupContext="shape" v:layerMember="0" transform="translate(643.309,-358.532)">
			<title>文本</title>
			<desc>复用</desc>
			<v:textBlock v:margins="rect(0,0,0,0)"/>
			<v:textRect cx="35.4331" cy="777.827" width="70.87" height="28.3465"/>
			<rect x="0" y="763.654" width="70.8661" height="28.3465" class="st7"/>
			<text x="21.43" y="782.08" class="st8" v:langID="2052"><v:paragraph v:horizAlign="1"/><v:tabList/>复用</text>		</g>
		<g id="shape31-97" v:mID="31" v:groupContext="shape" v:layerMember="0" transform="translate(423.86,-188.023)">
			<title>Shape.31</title>
			<desc>add</desc>
			<v:textBlock v:margins="rect(0,0,0,0)"/>
			<v:textRect cx="34.0157" cy="772.866" width="53.86" height="38.2677"/>
			<path d="M0 756.57 C0 754.68 0.94 753.73 2.83 753.73 L65.2 753.73 C67.09 753.73 68.03 754.68 68.03 756.57 L68.03 789.17
						 C68.03 791.06 67.09 792 65.2 792 L2.83 792 C0.94 792 0 791.06 0 789.17 L0 756.57 Z" class="st2"/>
			<text x="24" y="776.47" class="st3" v:langID="2052"><v:paragraph v:horizAlign="1"/><v:tabList/>add</text>		</g>
		<g id="shape32-100" v:mID="32" v:groupContext="shape" v:layerMember="0" transform="translate(532.876,-601.22)">
			<title>Shape.32</title>
			<desc>主包</desc>
			<v:textBlock v:margins="rect(0,0,0,0)"/>
			<v:textRect cx="35.4331" cy="777.827" width="70.87" height="28.3465"/>
			<rect x="0" y="763.654" width="70.8661" height="28.3465" class="st7"/>
			<text x="21.43" y="782.08" class="st8" v:langID="2052"><v:paragraph v:horizAlign="1"/><v:tabList/>主包</text>		</g>
		<g id="shape33-103" v:mID="33" v:groupContext="shape" v:layerMember="0" transform="translate(313.795,-354.623)">
			<title>Shape.33</title>
			<desc>分包</desc>
			<v:textBlock v:margins="rect(0,0,0,0)"/>
			<v:textRect cx="35.4331" cy="777.827" width="70.87" height="28.3465"/>
			<rect x="0" y="763.654" width="70.8661" height="28.3465" class="st7"/>
			<text x="21.43" y="782.08" class="st8" v:langID="2052"><v:paragraph v:horizAlign="1"/><v:tabList/>分包</text>		</g>
		<g id="shape34-106" v:mID="34" v:groupContext="shape" v:layerMember="0" transform="translate(718.184,-382.97)">
			<title>Shape.34</title>
			<desc>分包</desc>
			<v:textBlock v:margins="rect(0,0,0,0)"/>
			<v:textRect cx="35.4331" cy="777.827" width="70.87" height="28.3465"/>
			<rect x="0" y="763.654" width="70.8661" height="28.3465" class="st7"/>
			<text x="21.43" y="782.08" class="st8" v:langID="2052"><v:paragraph v:horizAlign="1"/><v:tabList/>分包</text>		</g>
		<g id="shape35-109" v:mID="35" v:groupContext="shape" v:layerMember="0" transform="translate(833.762,-382.97)">
			<title>Shape.35</title>
			<desc>分包</desc>
			<v:textBlock v:margins="rect(0,0,0,0)"/>
			<v:textRect cx="35.4331" cy="777.827" width="70.87" height="28.3465"/>
			<rect x="0" y="763.654" width="70.8661" height="28.3465" class="st7"/>
			<text x="21.43" y="782.08" class="st8" v:langID="2052"><v:paragraph v:horizAlign="1"/><v:tabList/>分包</text>		</g>
		<g id="shape36-112" v:mID="36" v:groupContext="shape" v:layerMember="0" transform="translate(833.762,-245.579)">
			<title>Shape.36</title>
			<desc>分包</desc>
			<v:textBlock v:margins="rect(0,0,0,0)"/>
			<v:textRect cx="35.4331" cy="777.827" width="70.87" height="28.3465"/>
			<rect x="0" y="763.654" width="70.8661" height="28.3465" class="st7"/>
			<text x="21.43" y="782.08" class="st8" v:langID="2052"><v:paragraph v:horizAlign="1"/><v:tabList/>分包</text>		</g>
		<g id="shape37-115" v:mID="37" v:groupContext="shape" v:layerMember="0" transform="translate(1195.72,-520.315)">
			<title>Shape.37</title>
			<desc>分包</desc>
			<v:textBlock v:margins="rect(0,0,0,0)"/>
			<v:textRect cx="35.4331" cy="777.827" width="70.87" height="28.3465"/>
			<rect x="0" y="763.654" width="70.8661" height="28.3465" class="st7"/>
			<text x="21.43" y="782.08" class="st8" v:langID="2052"><v:paragraph v:horizAlign="1"/><v:tabList/>分包</text>		</g>
		<g id="shape38-118" v:mID="38" v:groupContext="shape" v:layerMember="0" transform="translate(671.655,-515.354)">
			<title>linker</title>
			<path d="M7.09 792 L7.09 827.22" class="st9"/>
		</g>
		<g id="shape39-124" v:mID="39" v:groupContext="shape" v:layerMember="0" transform="translate(782.088,-515.354)">
			<title>Dynamic connector.39</title>
			<path d="M7.09 792 L7.09 912.26" class="st9"/>
		</g>
		<g id="shape40-129" v:mID="40" v:groupContext="shape" v:layerMember="0" transform="translate(755.159,-615.394)">
			<title>Dynamic connector.40</title>
			<path d="M0 792 L-76.42 792 L-76.42 846.61" class="st9"/>
		</g>
		<g id="shape41-134" v:mID="41" v:groupContext="shape" v:layerMember="0" transform="translate(782.088,-596.26)">
			<title>Dynamic connector.41</title>
			<path d="M7.09 792 L7.09 827.47" class="st9"/>
		</g>
		<g id="shape42-139" v:mID="42" v:groupContext="shape" v:layerMember="0" transform="translate(823.191,-615.394)">
			<title>Dynamic connector.42</title>
			<path d="M0 792 L76.42 792 L76.42 846.61" class="st9"/>
		</g>
		<g id="shape43-144" v:mID="43" v:groupContext="shape" v:layerMember="0" transform="translate(892.521,-515.354)">
			<title>Dynamic connector.43</title>
			<path d="M7.09 792 L7.09 912.26" class="st9"/>
		</g>
		<g id="shape44-149" v:mID="44" v:groupContext="shape" v:layerMember="0" transform="translate(1086.58,-449.326)">
			<title>Dynamic connector.44</title>
			<path d="M0 792 L-76.54 792 L-76.54 846.23" class="st9"/>
		</g>
		<g id="shape45-154" v:mID="45" v:groupContext="shape" v:layerMember="0" transform="translate(1113.51,-430.192)">
			<title>Dynamic connector.45</title>
			<path d="M7.09 792 L7.09 827.1" class="st9"/>
		</g>
		<g id="shape46-159" v:mID="46" v:groupContext="shape" v:layerMember="0" transform="translate(1154.61,-449.326)">
			<title>Dynamic connector.46</title>
			<path d="M0 792 L76.54 792 L76.54 846.23" class="st9"/>
		</g>
		<g id="shape47-164" v:mID="47" v:groupContext="shape" v:layerMember="0" transform="translate(916.616,-515.354)">
			<title>Dynamic connector.47</title>
			<path d="M0 792 L0 848.46 L179.81 848.46" class="st9"/>
		</g>
		<g id="shape48-169" v:mID="48" v:groupContext="shape" v:layerMember="0" transform="translate(644.726,-534.488)">
			<title>Dynamic connector.48</title>
			<path d="M0 792 L-76.42 792 L-76.42 846.35" class="st9"/>
		</g>
		<g id="shape49-174" v:mID="49" v:groupContext="shape" v:layerMember="0" transform="translate(671.655,-268.811)">
			<title>Dynamic connector.49</title>
			<path d="M7.09 792 L7.09 827.35" class="st9"/>
		</g>
		<g id="shape50-179" v:mID="50" v:groupContext="shape" v:layerMember="0" transform="translate(602.325,-368.796)">
			<title>Dynamic connector.50</title>
			<path d="M0 792 L13.5 792 L13.5 872.85 L35.24 872.85" class="st9"/>
		</g>
		<g id="shape51-184" v:mID="51" v:groupContext="shape" v:layerMember="0" transform="translate(561.222,-349.663)">
			<title>Dynamic connector.51</title>
			<path d="M7.09 792 L7.09 827.42" class="st9"/>
		</g>
		<g id="shape52-189" v:mID="52" v:groupContext="shape" v:layerMember="0" transform="translate(534.293,-368.796)">
			<title>Dynamic connector.52</title>
			<path d="M0 792 L-76.42 792 L-76.42 846.55" class="st9"/>
		</g>
		<g id="shape53-194" v:mID="53" v:groupContext="shape" v:layerMember="0" transform="translate(551.301,-359.229)">
			<title>Dynamic connector.53</title>
			<path d="M0 792 L-90.43 792 A3 3 -180 1 0 -96.43 792 L-203.86 792 L-203.86 836.99" class="st9"/>
		</g>
		<g id="shape54-199" v:mID="54" v:groupContext="shape" v:layerMember="0" transform="translate(892.521,-349.663)">
			<title>Dynamic connector.54</title>
			<path d="M7.09 792 L7.09 827.42" class="st9"/>
		</g>
		<g id="shape55-204" v:mID="55" v:groupContext="shape" v:layerMember="0" transform="translate(561.222,-434.702)">
			<title>Dynamic connector.55</title>
			<path d="M7.09 792 L7.09 831.61" class="st9"/>
		</g>
		<g id="shape56-209" v:mID="56" v:groupContext="shape" v:layerMember="0" transform="translate(671.655,-434.702)">
			<title>Dynamic connector.56</title>
			<path d="M7.09 792 L7.09 832.66" class="st11"/>
		</g>
		<g id="shape57-214" v:mID="57" v:groupContext="shape" v:layerMember="0" transform="translate(671.655,-358.532)">
			<title>Dynamic connector.57</title>
			<path d="M7.09 792 L7.09 836.29" class="st11"/>
		</g>
		<g id="shape58-219" v:mID="58" v:groupContext="shape" v:layerMember="0" transform="translate(450.789,-268.811)">
			<title>Dynamic connector.58</title>
			<path d="M7.09 792 L7.09 827.35" class="st9"/>
		</g>
		<g id="shape59-224" v:mID="59" v:groupContext="shape" v:layerMember="0" transform="translate(1329.47,-515.354)">
			<title>Dynamic connector.59</title>
			<path d="M7.09 792 L7.09 950.53" class="st9"/>
		</g>
		<g id="shape60-229" v:mID="60" v:groupContext="shape" v:layerMember="0" transform="translate(1329.47,-311.395)">
			<title>Dynamic connector.60</title>
			<path d="M7.09 792 L7.09 869.94" class="st9"/>
		</g>
		<g id="shape61-234" v:mID="61" v:groupContext="shape" v:layerMember="0" transform="translate(1329.47,-601.22)">
			<title>Dynamic connector.61</title>
			<path d="M7.09 792 L7.09 839.6" class="st12"/>
		</g>
	</g>
</svg>
